<svg id="visual" viewBox="0 0 900 600" width="900" height="600" xmlns="http://www.w3.org/2000/svg" xmlns:xlink="http://www.w3.org/1999/xlink" version="1.1"><path d="M0 38L7.8 33.7C15.7 29.3 31.3 20.7 47.2 14.7C63 8.7 79 5.3 94.8 9.5C110.7 13.7 126.3 25.3 142 32.8C157.7 40.3 173.3 43.7 189.2 42.2C205 40.7 221 34.3 236.8 36.3C252.7 38.3 268.3 48.7 284.2 45.8C300 43 316 27 331.8 27C347.7 27 363.3 43 379 49C394.7 55 410.3 51 426.2 46C442 41 458 35 473.8 34.7C489.7 34.3 505.3 39.7 521 43.8C536.7 48 552.3 51 568.2 52.8C584 54.7 600 55.3 615.8 46.3C631.7 37.3 647.3 18.7 663.2 14.2C679 9.7 695 19.3 710.8 20.2C726.7 21 742.3 13 758 9.5C773.7 6 789.3 7 805.2 13.2C821 19.3 837 30.7 852.8 37.8C868.7 45 884.3 48 892.2 49.5L900 51L900 0L892.2 0C884.3 0 868.7 0 852.8 0C837 0 821 0 805.2 0C789.3 0 773.7 0 758 0C742.3 0 726.7 0 710.8 0C695 0 679 0 663.2 0C647.3 0 631.7 0 615.8 0C600 0 584 0 568.2 0C552.3 0 536.7 0 521 0C505.3 0 489.7 0 473.8 0C458 0 442 0 426.2 0C410.3 0 394.7 0 379 0C363.3 0 347.7 0 331.8 0C316 0 300 0 284.2 0C268.3 0 252.7 0 236.8 0C221 0 205 0 189.2 0C173.3 0 157.7 0 142 0C126.3 0 110.7 0 94.8 0C79 0 63 0 47.2 0C31.3 0 15.7 0 7.8 0L0 0Z" fill="#060b10" stroke-linecap="round" stroke-linejoin="miter"></path></svg>